<svg width="20" height="20" viewBox="0 0 20 20" fill="none" xmlns="http://www.w3.org/2000/svg">
<path d="M18.6956 6.25904L17.5871 5.1955V2.79823C17.5871 1.25438 16.3327 0 14.7888 0C13.3822 0 12.2179 1.04425 12.0228 2.39726H8.79353C8.37326 2.39726 7.96157 2.5688 7.66352 2.86471L0.467445 10.0608C0.171539 10.3588 0 10.7705 0 11.1929C0 11.6154 0.171539 12.0249 0.467445 12.323L5.26411 17.1196C5.56216 17.4177 5.97386 17.5871 6.39413 17.5871C6.8144 17.5871 7.22609 17.4155 7.52414 17.1196L8.79139 15.8524V17.5892C8.79139 18.0095 8.96936 18.4233 9.28028 18.7235C9.58476 19.0194 10.0093 19.1888 10.4467 19.1888H17.5292C17.9645 19.1888 18.389 19.0194 18.6956 18.7235C19.0066 18.4233 19.1845 18.0095 19.1845 17.5892V7.39549C19.1867 6.97522 19.0087 6.56138 18.6956 6.25904ZM14.7888 0.799802C15.891 0.799802 16.7873 1.69609 16.7873 2.79823V4.43L15.1555 2.86471C14.7974 2.51519 14.2935 2.35652 13.8003 2.42085C13.7317 2.40798 13.6631 2.40155 13.5902 2.40155H12.8311C13.0177 1.4881 13.8239 0.799802 14.7888 0.799802ZM12.3916 3.97113C13.067 3.97113 13.6159 4.52006 13.6159 5.1955C13.6159 5.87093 13.067 6.41986 12.3916 6.41986C11.7161 6.41986 11.1672 5.87093 11.1672 5.1955C11.1672 4.5222 11.7161 3.97113 12.3916 3.97113ZM18.3869 17.5871C18.3869 17.7908 18.2968 17.9966 18.1403 18.1467C17.9838 18.299 17.7607 18.3847 17.5313 18.3847H10.4489C10.2195 18.3847 9.99645 18.2968 9.83992 18.1467C9.68339 17.9966 9.59334 17.7908 9.59334 17.5871V15.0526L14.7202 9.92569C15.0183 9.62764 15.1877 9.21595 15.1877 8.79568V4.0033L18.1403 6.8337C18.2968 6.98379 18.3869 7.18964 18.3869 7.39334V17.5871Z" fill="#13A6BA"/>
<path d="M12.3915 5.59649C12.6124 5.59649 12.7904 5.41637 12.7904 5.19766C12.7904 4.9768 12.6102 4.79883 12.3915 4.79883C12.1728 4.79883 11.9927 4.97894 11.9927 5.19766C11.9906 5.41637 12.1707 5.59649 12.3915 5.59649Z" fill="#13A6BA"/>
</svg>
