<svg width="17" height="21" viewBox="0 0 17 21" fill="none" xmlns="http://www.w3.org/2000/svg">
<path d="M15.9638 5.74761C15.5828 5.28443 15.1112 4.92021 14.5848 4.67177C14.6059 4.49914 14.6185 4.32439 14.6185 4.14965C14.6185 1.86113 12.7574 0 10.471 0C8.18455 0 6.32132 1.86113 6.32132 4.14965C6.32132 4.77283 6.46238 5.3897 6.72975 5.94762C5.88972 7.19398 5.81393 8.83826 6.58028 10.1625L4.29386 12.4468L0.300013 16.4428C-0.100004 16.8428 -0.100004 17.4955 0.300013 17.8955C0.700029 18.2955 1.35269 18.2955 1.7527 17.8955L2.39484 17.2534L2.83486 17.6934C3.23487 18.0934 3.88753 18.0934 4.28755 17.6934C4.68756 17.2934 4.68756 16.6407 4.28755 16.2407L3.84753 15.8007L4.20333 15.4449L4.64335 15.8849C5.02653 16.2828 5.71498 16.2828 6.09604 15.8849C6.49396 15.5017 6.49396 14.8133 6.09604 14.4322L5.65603 13.9922L8.03507 11.6131C9.0309 12.19 10.2373 12.3058 11.3321 11.9247C11.4015 11.9542 11.471 11.9816 11.5405 12.0089V16.4891V18.0471V19.0913C11.5405 19.1671 11.57 19.2408 11.6205 19.2977L12.6711 20.4261C12.7805 20.5482 12.989 20.5524 13.1027 20.4345L14.2416 19.3061C14.2985 19.2492 14.3301 19.1734 14.3301 19.0913V18.0955C14.3301 18.0029 14.288 17.9144 14.2143 17.8576L13.5511 17.3439L14.2143 16.8302C14.368 16.7165 14.368 16.4681 14.2143 16.3544L13.5511 15.8407L14.2143 15.327C14.368 15.2133 14.368 14.9648 14.2143 14.8511L13.5511 14.3374L14.2143 13.8237C14.288 13.7669 14.3301 13.6785 14.3301 13.5858V11.9773C15.8543 11.3857 16.8628 9.92463 16.8628 8.27192C16.8628 7.79401 16.7786 7.32452 16.6123 6.88029C16.5449 6.69923 16.4523 6.48869 16.3196 6.26342C16.2038 6.0571 16.0796 5.88656 15.9638 5.74761ZM12.1826 7.22978C12.1826 6.82765 12.5089 6.49922 12.9132 6.49922C12.9784 6.49922 13.0416 6.50975 13.1027 6.52448C12.8416 6.81292 12.5342 7.05924 12.1847 7.25293C12.1847 7.24662 12.1826 7.2382 12.1826 7.22978ZM12.9132 7.96033C12.7384 7.96033 12.5763 7.89717 12.4521 7.79401C12.8795 7.56242 13.2542 7.26136 13.57 6.90976C13.6185 7.00661 13.6458 7.11398 13.6458 7.22978C13.6416 7.634 13.3153 7.96033 12.9132 7.96033ZM10.471 0.60213C12.4268 0.60213 14.0185 2.19378 14.0185 4.14965C14.0185 4.2507 14.0143 4.35176 14.0058 4.45282C13.6479 4.34966 13.2753 4.29492 12.8921 4.29492C12.4353 4.29492 11.9952 4.37281 11.5868 4.51598C10.1025 3.88437 8.3614 4.21491 7.21609 5.36233C7.19714 5.38128 7.1803 5.40023 7.16135 5.41917C7.00766 5.01705 6.92766 4.58545 6.92766 4.14965C6.92345 2.19378 8.51509 0.60213 10.471 0.60213ZM8.15718 10.9815C8.03718 10.9015 7.87928 10.9184 7.77822 11.0194L5.0181 13.7795C4.90021 13.8974 4.90021 14.0869 5.0181 14.2048L5.67076 14.8575C5.83498 15.0154 5.83498 15.2996 5.67076 15.4596C5.51286 15.6238 5.22864 15.6238 5.06863 15.4596L4.41597 14.8069C4.29807 14.689 4.10859 14.689 3.99069 14.8069L3.20961 15.588C3.09381 15.6996 3.09381 15.9017 3.20961 16.0133L3.86227 16.666C4.02859 16.8323 4.02859 17.1018 3.86227 17.2681C3.69594 17.4344 3.42646 17.4344 3.26014 17.2681L2.60748 16.6154C2.48958 16.4975 2.3001 16.4975 2.1822 16.6154L1.32742 17.4702C1.1611 17.6365 0.891616 17.6365 0.725294 17.4702C0.558971 17.3039 0.558971 17.0344 0.725294 16.8681L4.24334 13.35L7.17609 10.4173C7.27715 10.3162 7.29399 10.1562 7.21399 10.0383C6.32763 8.70773 6.50659 6.92029 7.63927 5.78761C8.47299 4.95389 9.67935 4.62756 10.8015 4.89073C10.4036 5.13706 10.0541 5.45075 9.76567 5.81708C9.23091 5.87603 8.73194 6.11394 8.34877 6.49711C7.42452 7.42136 7.42452 8.92458 8.34877 9.84883C8.69405 10.1941 9.12564 10.4194 9.60356 10.5036C9.64146 10.5583 9.67935 10.6131 9.72146 10.6678C9.96357 10.9878 10.2541 11.2678 10.5762 11.4994C9.74041 11.6363 8.873 11.4573 8.15718 10.9815ZM9.19302 9.73304C9.03932 9.65093 8.90037 9.54777 8.77405 9.42145C8.30877 8.95616 8.15718 8.29087 8.3214 7.69716C8.51509 7.81506 8.7151 7.91402 8.92564 7.99823C8.91932 8.08665 8.91722 8.17718 8.91722 8.26771C8.91511 8.77721 9.00985 9.27197 9.19302 9.73304ZM9.01406 7.38347C8.86458 7.31609 8.71931 7.2382 8.58036 7.14977C8.6372 7.06977 8.70036 6.99187 8.77405 6.92029C8.92774 6.7666 9.1088 6.64238 9.3046 6.55606C9.17828 6.81713 9.08143 7.09503 9.01406 7.38347Z" fill="#13A6BA"/>
</svg>
