<svg width="30" height="30" viewBox="0 0 30 30" fill="none" xmlns="http://www.w3.org/2000/svg">
<path d="M15.0025 5.5C10.8652 5.5 7.5 8.71803 7.5 12.6767C7.5 18.3005 14.2958 24.1058 14.585 24.3495C14.7032 24.4498 14.8516 24.5 15 24.5C15.1484 24.5 15.2968 24.4498 15.415 24.3495C15.7042 24.1058 22.5 18.2981 22.5 12.6743C22.5025 8.71803 19.1373 5.5 15.0025 5.5ZM15.0025 16.5851C12.7037 16.5851 10.835 14.8101 10.835 12.6265C10.835 10.4429 12.7037 8.66786 15.0025 8.66786C17.3013 8.66786 19.17 10.4429 19.17 12.6265C19.17 14.8101 17.2988 16.5851 15.0025 16.5851Z" fill="#13A6BA"/>
</svg>
