<svg width="131" height="27" viewBox="0 0 131 27" fill="none" xmlns="http://www.w3.org/2000/svg">
<path d="M17.9951 26.8379C15.016 26.8379 12.0067 26.8379 9.02763 26.8379C6.04851 26.8379 3.00921 26.8379 0 26.8379V0H8.57625V7.14828C10.141 7.14828 11.7359 7.14828 13.3007 7.14828C14.8655 7.14828 16.4604 7.14828 18.0252 7.14828C19.3191 7.14828 20.1015 7.56313 20.1015 7.56313C20.4024 7.69078 20.7034 7.85034 20.9441 8.04181C21.1848 8.23328 21.4557 8.45667 21.6663 8.71196C22.0876 9.22255 22.4186 9.86079 22.6594 10.5948C22.7195 10.9458 22.8098 11.2968 22.87 11.7117C22.9302 12.1265 22.9603 12.5414 22.9603 12.9882V21.1257C22.9603 21.6044 22.9302 22.0512 22.87 22.4341C22.8098 22.817 22.7195 23.2 22.5992 23.5191C22.4487 23.934 22.2982 24.3169 22.0876 24.6679C21.877 25.019 21.6663 25.2743 21.3955 25.4976C21.1848 25.7529 20.914 25.9444 20.6432 26.1359C20.3724 26.3274 20.1015 26.4231 19.8307 26.5188C19.8307 26.5188 18.8978 26.8379 17.9951 26.8379ZM13.3308 11.0096H9.59938C9.44892 11.0096 9.32855 11.0415 9.20818 11.1373C9.08781 11.233 8.96745 11.3287 8.87717 11.4564C8.72671 11.584 8.63643 11.7117 8.57625 11.8712C8.51606 12.0308 8.48597 12.1904 8.48597 12.3499V21.7639C8.48597 21.9235 8.51606 22.0512 8.60634 22.1788C8.69662 22.3064 8.7568 22.4341 8.84708 22.5298C8.96745 22.6575 9.08781 22.7532 9.20818 22.817C9.32855 22.8809 9.47901 22.9766 9.62947 22.9766H13.3609C13.4813 22.9766 13.6016 22.9447 13.722 22.849C13.8424 22.7532 13.9627 22.6894 14.053 22.5617C14.1433 22.4341 14.2336 22.3064 14.2937 22.1788C14.3539 22.0512 14.384 21.8916 14.384 21.7639V12.318C14.384 12.1904 14.3539 12.0627 14.2937 11.9032C14.2336 11.7436 14.1734 11.584 14.053 11.4883C13.9326 11.3926 13.8424 11.2649 13.722 11.1692C13.6016 11.0734 13.4813 11.0096 13.3308 11.0096Z" fill="#021112"/>
<path d="M25.6385 7.14819H33.4324V8.58423C33.5227 8.39276 33.643 8.20129 33.7634 8.00982C33.8838 7.81834 34.0342 7.6907 34.1546 7.56305C34.3051 7.4354 34.4856 7.33966 34.6361 7.27584C34.7865 7.21202 34.9671 7.14819 35.1777 7.14819H43.4531C43.8443 7.14819 44.2054 7.21202 44.5063 7.37158C44.8072 7.53114 45.0479 7.72261 45.2285 7.94599C45.379 8.10555 45.5294 8.29702 45.6197 8.4885C45.71 8.67997 45.8003 8.83953 45.8604 8.99909C45.9206 9.15865 45.9507 9.25438 45.9808 9.31821C46.0109 9.38203 45.9808 9.38203 45.9507 9.28629C46.0109 9.031 46.0711 8.7757 46.1313 8.55232C46.1915 8.32894 46.3118 8.10555 46.4322 7.91408C46.5526 7.65878 46.703 7.46731 46.8836 7.33966C47.0641 7.21202 47.3049 7.14819 47.5456 7.14819H54.3464C54.8279 7.14819 55.2793 7.21202 55.6705 7.30775C56.0617 7.40349 56.3927 7.56305 56.7237 7.78643C57.0547 8.00982 57.2954 8.2332 57.5362 8.4885C57.7769 8.74379 57.9575 9.06291 58.138 9.38203C58.2885 9.66924 58.4088 9.95645 58.4991 10.2756C58.5894 10.5947 58.6797 10.9138 58.7399 11.2329C58.8 11.6478 58.8602 12.0626 58.8903 12.4775C58.9204 12.8923 58.9505 13.2753 58.9505 13.6582V26.806H51.1566V12.0945C51.1566 11.935 51.1266 11.7754 51.0664 11.6478C51.0062 11.5201 50.946 11.4244 50.8858 11.2967C50.7955 11.2329 50.7053 11.1691 50.5849 11.1053C50.4645 11.0415 50.3743 11.0415 50.2539 11.0415H47.0039C46.8836 11.0415 46.7933 11.0734 46.6729 11.1372C46.5526 11.201 46.4924 11.2648 46.4322 11.3287C46.372 11.4244 46.3118 11.552 46.2516 11.6797C46.1915 11.8073 46.1915 11.9031 46.1915 12.0307V26.806H38.3675V12.1584C38.3675 12.0307 38.3374 11.9031 38.3073 11.7435C38.2772 11.584 38.217 11.4563 38.1569 11.3606C38.0666 11.2329 37.9462 11.1372 37.8258 11.0734C37.7055 11.0095 37.5249 10.9457 37.3444 10.9457H34.2449C34.1245 10.9457 34.0042 10.9776 33.9139 11.0734C33.8236 11.1691 33.7333 11.2648 33.643 11.3925C33.5528 11.5201 33.5227 11.6478 33.4625 11.7754C33.4023 11.9031 33.4023 12.0307 33.4023 12.1584V26.806H25.6385V7.14819Z" fill="#021112"/>
<path d="M84.5887 13.9133V26.7738H77.0356L76.494 24.6676C76.4639 24.8272 76.4338 24.9548 76.3736 25.0506C76.3134 25.1463 76.2532 25.274 76.2231 25.3697C76.163 25.5293 76.1028 25.6569 75.9824 25.7846C75.862 25.9122 75.8018 26.0079 75.7116 26.1037C75.4407 26.3271 75.1699 26.5185 74.8991 26.6143C74.5982 26.71 74.2672 26.7738 73.9361 26.7738H66.0821C65.6608 26.7738 65.2696 26.7419 64.9386 26.6462C64.6076 26.5504 64.2766 26.4547 64.0057 26.2951C63.7048 26.1356 63.434 25.9441 63.2234 25.7207C63.0127 25.4974 62.8021 25.2101 62.6516 24.9229C62.471 24.6038 62.3206 24.2209 62.2002 23.806C62.0799 23.3912 62.0197 22.9763 61.9595 22.5934C61.8993 22.1785 61.8692 21.7317 61.8692 21.3169C61.8692 20.902 61.8391 20.4872 61.8391 20.1042C61.8391 19.7532 61.8391 19.3703 61.8391 18.9873C61.8391 18.6044 61.8692 18.1895 61.8993 17.7747C61.9294 17.3598 62.0197 16.9769 62.0798 16.5939C62.14 16.211 62.2604 15.8599 62.4109 15.5408C62.5613 15.1898 62.772 14.8707 63.0428 14.5835C63.3136 14.2963 63.5845 14.0729 63.9456 13.8814C64.2164 13.7218 64.5474 13.6261 64.9085 13.5304C65.2696 13.4346 65.6608 13.4027 66.0821 13.4027H74.8389C74.9894 13.4027 75.1699 13.3389 75.3204 13.2432C75.4708 13.1474 75.6514 13.0198 75.7718 12.8283C75.862 12.7326 75.9523 12.6049 76.0125 12.4454C76.0727 12.2858 76.1028 12.1582 76.1028 12.0305C76.1028 11.8709 76.0727 11.7433 75.9824 11.5837C75.8921 11.4242 75.8319 11.2965 75.7116 11.2008C75.5912 11.0732 75.4708 10.9774 75.3204 10.9136C75.1699 10.8498 75.0495 10.7859 74.8991 10.7859H63.2534V7.05225H79.4731C79.9546 7.05225 80.3758 7.08416 80.767 7.17989C81.1582 7.27563 81.5194 7.40328 81.8504 7.56284C82.2416 7.7224 82.5425 7.97769 82.8133 8.23299C83.0841 8.48828 83.3249 8.8074 83.5054 9.12652C83.686 9.41373 83.8665 9.73285 83.9869 10.0839C84.1073 10.4349 84.2276 10.754 84.2878 11.1051C84.4082 11.5837 84.4684 12.0624 84.5286 12.5411C84.5887 13.0198 84.5887 13.4985 84.5887 13.9133ZM76.0727 17.3279H71.92C71.7394 17.3279 71.5589 17.3917 71.3783 17.4875C71.1978 17.5832 71.0473 17.7108 70.8968 17.8704C70.7765 18.03 70.6862 18.1895 70.5658 18.381C70.4455 18.5725 70.4154 18.7001 70.4154 18.8916V21.6998C70.4154 21.8275 70.4455 21.9551 70.5056 22.0828C70.5658 22.2104 70.626 22.3381 70.7163 22.4657C70.8367 22.5934 70.9871 22.6891 71.1376 22.8167C71.288 22.9444 71.4686 22.9763 71.589 22.9763H74.9894C75.1097 22.9763 75.2301 22.9444 75.3806 22.8487C75.531 22.7529 75.6514 22.6572 75.7718 22.5295C75.862 22.4338 75.9523 22.3062 76.0125 22.1785C76.0727 22.0509 76.1028 21.9232 76.1028 21.7956V17.3279H76.0727Z" fill="#021112"/>
<path d="M96.2953 26.8379H87.689V7.14819H96.2953V8.90335C96.4157 8.71188 96.5661 8.52041 96.7467 8.32894C96.8069 8.2332 96.8972 8.13746 97.0175 8.04173C97.1379 7.94599 97.2282 7.88217 97.3184 7.85026C97.4689 7.75452 97.5893 7.65878 97.7397 7.56305C97.8902 7.46731 98.0106 7.40349 98.161 7.37158C98.3115 7.30775 98.492 7.27584 98.6425 7.24393C98.793 7.21202 98.9434 7.18011 99.0939 7.18011H104.21V12.637H99.6957C99.2443 12.637 98.8231 12.7009 98.4619 12.7966C98.0708 12.8923 97.7096 13.02 97.4388 13.2115C97.2884 13.2753 97.1379 13.371 97.0175 13.4987C96.8972 13.6263 96.8069 13.754 96.6865 13.8816C96.5361 14.0412 96.4458 14.2007 96.3856 14.3922C96.3254 14.5837 96.2953 14.7751 96.2953 14.9985V26.8379Z" fill="#021112"/>
<path d="M115.222 13.9776L122.594 7.1804H128.011L122.925 11.9034L130.84 26.8701H120.638L116.606 17.6475L115.192 19.1155V26.9339L106.646 26.902V0.0959473H115.192V13.9776H115.222Z" fill="#021112"/>
</svg>
